# xmcd CD database file generated by OrangeCD 4.2
#
# Track frame offsets:
#	150
#	17163
#	29525
#	47955
#	65827
#	81856
#	94924
#	110688
#	124589
#	139509
#
# Disc length: 2210 seconds
#
# Revision: 0
# Processed by: cddbd v1.4PL0 Copyright (c) Steve Scherf et al.
# Submitted via: OrangeCD 4.2
#
DISCID=8c08a00a
DTITLE=Atlanta - Pictures
DYEAR=1900
DGENRE=Country
TTITLE0=Dixie Dreaming
TTITLE1=Wishful Drinkin'
TTITLE2=Pictures
TTITLE3=Sweet Was Our Rose
TTITLE4=Long Cool Woman In A Black Dress
TTITLE5=Atlanta Burned Again Last Night
TTITLE6=Sweet Country Music
TTITLE7=(Nothing Left Between Us) But Alabama
TTITLE8=You Are The Wine
TTITLE9=Blue Side Of The Grey
EXTD=
EXTT0=
EXTT1=
EXTT2=
EXTT3=
EXTT4=
EXTT5=
EXTT6=
EXTT7=
EXTT8=
EXTT9=
PLAYORDER=
